<?xml version="1.0" encoding="UTF-8"?>
<svg xmlns="http://www.w3.org/2000/svg" xmlns:xlink="http://www.w3.org/1999/xlink" width="24px" height="24px" version="1.1" viewBox="0 0 24 24">
    <g id="Symbols" fill="none" fill-rule="evenodd" stroke="none" stroke-width="1">
        <g id="Icon/Alarms-&amp;-Notifications/Priority/Un-Ack/High-D">
            <g id="Group-2" transform="translate(0.000000, 1.000000)">
                <path id="Triangle-6" stroke="#202020" stroke-width="1.5" d="M8.20760064,19.2682441 C8.61668233,20.0774514 9.27384537,20.7346144 10.0830526,21.1436961 C12.1778039,22.2026639 14.7343983,21.3629954 15.7933661,19.2682441 L22.7707314,5.46627057 C23.0005513,5.01166236 23.1202917,4.50939747 23.1202917,4 C23.1202917,2.20507456 21.6652171,0.75 19.8702917,0.75 L4.13067504,0.75 C3.62127757,0.75 3.11901267,0.869740419 2.66440447,1.09956027 C1.06253584,1.90935915 0.420436436,3.86440194 1.23023531,5.46627057 L8.20760064,19.2682441 Z"/>
                <path id="Triangle-6" fill="#27C6FF" d="M8.53169372,18.7910599 L1.91558885,5.01880252 C1.33093086,3.80176312 1.83364124,2.33637704 3.0384239,1.7457711 C3.36835712,1.58403195 3.73031037,1.5 4.09704083,1.5 L19.946993,1.5 C21.2861443,1.5 22.3717409,2.59664083 22.3717409,3.94941586 C22.3717409,4.31987721 22.2885552,4.68551276 22.1284449,5.01880252 L15.5123401,18.7910599 C14.5768873,20.7383229 12.2558821,21.5508423 10.3282298,20.6058728 C9.54471379,20.2217793 8.91191906,19.5825469 8.53169372,18.7910599 Z"/>
                <g id="Group" transform="translate(7.500000, 3.000000)">
                    <path id="ExclamationMark-Square-outline" fill="#FFC627" fill-rule="nonzero" d="M6.43113385,11.1800051 C7.06633427,11.72783 7.46841922,12.5385363 7.46841922,13.4431545 C7.46841922,15.0930327 6.13092937,16.4305221 4.48105173,16.4305221 C2.83117378,16.4305221 1.49368374,15.0930328 1.49368384,13.4431546 C1.49368379,12.5385372 1.89576799,11.7278316 2.53096745,11.1800067 C1.02668251,9.94716827 0,7.44253863 0,5.22789345 C0,2.3336173 2.0002434,0 4.48105153,0 C6.96186575,0 8.96210856,2.33362641 8.96208424,5.227906 C8.96206564,7.44255847 7.93540249,9.94717165 6.43113385,11.1800051 Z"/>
                    <path id="ExclamationMark-Square" fill="#202020" d="M4.50000019,12 C5.32842714,12 6,12.671573 6,13.5 C6,14.328428 5.32842714,15 4.50000019,15 C3.67157285,15 2.99999995,14.328428 3,13.5 C2.99999995,12.671573 3.67157285,12 4.50000019,12 Z M4.50000945,1.5 C6.00001418,1.5 7.5000189,3 7.5,5.25 C7.4999811,7.5 6.00001418,10.5 4.50000945,10.5 C3.00000473,10.5 1.5,7.5 1.5,5.25 C1.5,3 3.00000473,1.5 4.50000945,1.5 Z"/>
                </g>
            </g>
        </g>
    </g>
</svg>
